<svg width="16" height="13" viewBox="0 0 16 13" fill="none" xmlns="http://www.w3.org/2000/svg">
<path d="M5.24997 9.85088L2.04164 6.64255C1.95774 6.55763 1.85782 6.49021 1.74768 6.44419C1.63753 6.39817 1.51934 6.37448 1.39997 6.37448C1.2806 6.37448 1.16241 6.39817 1.05226 6.44419C0.942117 6.49021 0.8422 6.55763 0.758304 6.64255C0.673384 6.72644 0.605962 6.82636 0.559946 6.93651C0.513929 7.04665 0.490234 7.16484 0.490234 7.28421C0.490234 7.40359 0.513929 7.52177 0.559946 7.63192C0.605962 7.74207 0.673384 7.84198 0.758304 7.92588L4.59914 11.7667C4.95664 12.1242 5.53414 12.1242 5.89164 11.7667L15.6083 2.05921C15.6932 1.97532 15.7606 1.8754 15.8067 1.76525C15.8527 1.65511 15.8764 1.53692 15.8764 1.41755C15.8764 1.29818 15.8527 1.17999 15.8067 1.06984C15.7606 0.959695 15.6932 0.859778 15.6083 0.775882C15.5244 0.690962 15.4245 0.62354 15.3143 0.577523C15.2042 0.531507 15.086 0.507812 14.9666 0.507812C14.8473 0.507812 14.7291 0.531507 14.6189 0.577523C14.5088 0.62354 14.4089 0.690962 14.325 0.775882L5.24997 9.85088Z" fill="#FDFDFF"/>
</svg>
