<svg width="73" height="63" viewBox="0 0 73 63" fill="none" xmlns="http://www.w3.org/2000/svg">
<path d="M32.9855 29.7048C31.6186 29.6137 30.3428 29.5226 29.1582 29.5226V26.1509H32.9855V29.7048Z" stroke="#252525" stroke-width="1.18464" stroke-miterlimit="10" stroke-linecap="round" stroke-linejoin="round"/>
<path d="M39.1818 30.616C37.906 30.3426 36.6303 30.1603 35.3545 29.9781V29.8869V21.321H39.1818V30.4337V30.616Z" stroke="#252525" stroke-width="1.18464" stroke-miterlimit="10" stroke-linecap="round" stroke-linejoin="round"/>
<path d="M45.4689 16.7649V32.0741L45.2867 32.4387C44.1931 31.983 42.9174 31.5274 41.6416 31.1629V16.7649H45.4689Z" stroke="#252525" stroke-width="1.18464" stroke-miterlimit="10" stroke-linecap="round" stroke-linejoin="round"/>
<path d="M54.127 36.2659V10.0215H57.9543V34.3523L58.0454 34.5345C56.6785 34.9902 55.3116 35.628 54.127 36.2659Z" stroke="#252525" stroke-width="1.18464" stroke-miterlimit="10" stroke-linecap="round" stroke-linejoin="round"/>
<path d="M51.6665 13.3931V37.5416L51.7576 37.7239C51.1197 38.0884 50.5729 38.544 50.1173 38.9085C50.2996 38.4529 50.3907 37.815 50.2996 37.086C50.1173 35.8102 49.1149 34.6255 47.748 33.7143L47.9303 33.4409V13.4842H51.6665V13.3931Z" stroke="#252525" stroke-width="1.18464" stroke-miterlimit="10" stroke-linecap="round" stroke-linejoin="round"/>
<path d="M41.6421 16.7648V31.1628C40.8219 30.9806 40.0018 30.7983 39.1817 30.6161V30.5249V21.4123H35.4455V29.9782V30.0693C34.6254 29.9782 33.8052 29.887 32.9851 29.7959V29.7048V26.242H29.1577V29.6136C27.5175 29.6136 26.1506 29.7048 25.2393 29.887C24.6926 29.9781 24.1458 30.1604 23.599 30.3426C22.87 28.2467 22.5967 25.9686 22.5967 23.6904C22.5967 11.2061 32.7117 1.09106 45.196 1.09106C57.6804 1.09106 67.7954 11.2061 67.7954 23.6904C67.7954 26.6976 67.2487 29.5225 66.1551 32.1652H66.064C63.8769 32.4386 60.8698 33.3498 58.0449 34.6256L57.9537 34.4433V10.1126H54.1264V36.357C53.3063 36.8127 52.4862 37.2683 51.7572 37.7239L51.666 37.5417V13.4842H47.8387V33.441L47.6565 33.7143C46.9275 33.2587 46.1073 32.8031 45.2871 32.4386L45.4694 32.0741V16.7648H41.6421V16.7648Z" stroke="#252525" stroke-width="1.18464" stroke-miterlimit="10" stroke-linecap="round" stroke-linejoin="round"/>
<path d="M11.844 49.4793C10.9328 49.5704 10.2038 50.3906 10.2949 51.393C10.386 52.3043 11.2062 53.0333 12.2085 52.9422C13.1198 52.851 13.8488 52.0309 13.7577 51.0285C13.6666 50.0261 12.7553 49.3882 11.844 49.4793ZM3.0959 61.8726L1 39.4554L10.8417 36.4482L19.6809 50.664L20.1366 54.3091L3.0959 61.8726Z" stroke="#252525" stroke-width="1.18464" stroke-miterlimit="10" stroke-linecap="round" stroke-linejoin="round"/>
<path d="M45.3791 51.6663C34.8084 52.4864 32.6213 45.5608 19.5903 50.5728L10.751 36.357C13.9404 34.5345 19.408 31.4362 23.5087 30.1605C24.0555 29.9782 24.6022 29.7959 25.149 29.7048C26.0602 29.5226 27.4271 29.4314 29.0674 29.4314C30.2521 29.4314 31.5278 29.5225 32.8947 29.6137C33.7149 29.7048 34.535 29.7959 35.3552 29.887C36.6309 30.0693 37.9067 30.2515 39.1824 30.5249C40.0026 30.7072 40.8227 30.8895 41.6429 31.0717C42.9186 31.4362 44.1944 31.8007 45.2879 32.3475C46.1992 32.712 47.0193 33.1676 47.6572 33.6232C49.1153 34.5345 50.0265 35.7192 50.2088 36.9949C50.2999 37.724 50.2999 38.3618 50.0265 38.8175C50.4821 38.453 51.12 37.9973 51.6668 37.6328C52.3958 37.1771 53.1248 36.7215 54.0361 36.2659C55.2207 35.628 56.5876 34.9901 57.9545 34.4434C60.7794 33.2587 63.6955 32.3475 65.9736 31.983H66.0647C68.3429 31.7096 71.6235 31.8918 71.8058 34.8079C72.1703 39.5465 51.5757 51.2107 45.3791 51.6663Z" stroke="#252525" stroke-width="1.18464" stroke-miterlimit="10" stroke-linecap="round" stroke-linejoin="round"/>
<path d="M10.8418 36.4483C14.0312 34.6258 19.4988 31.5275 23.5995 30.2517C24.1463 30.0695 24.693 29.8872 25.2398 29.7961C26.151 29.6138 27.5179 29.5227 29.1582 29.5227C30.3428 29.5227 31.6186 29.6138 32.9855 29.705C33.8057 29.7961 34.6258 29.8872 35.446 29.9783C36.7217 30.1606 37.9975 30.3429 39.2733 30.6162C40.0934 30.7985 40.9136 30.9807 41.7337 31.163C43.0095 31.5275 44.2852 31.892 45.3788 32.4388C46.29 32.8033 47.1101 33.2589 47.748 33.7145C49.2061 34.6258 50.1173 35.8104 50.2996 37.0862C50.3907 37.8152 50.3907 38.4531 50.1173 38.9087C48.3859 43.0094 36.5395 39.5466 34.0791 38.9087" stroke="#252525" stroke-width="1.18464" stroke-miterlimit="2.6131" stroke-linecap="round" stroke-linejoin="round"/>
<path d="M19.5898 50.6639C32.6209 45.5608 34.808 52.4864 45.3787 51.7573C51.5753 51.3017 72.1698 39.5464 71.8053 34.8989C71.6231 31.9829 68.2514 31.8007 66.0643 32.074H65.9732C63.7862 32.3474 60.779 33.2587 57.9541 34.5345C56.5872 35.0812 55.3114 35.7191 54.0357 36.357C53.2155 36.8126 52.3954 37.2683 51.6664 37.7239C51.0285 38.0884 50.4817 38.544 50.0261 38.9085" stroke="#252525" stroke-width="1.18464" stroke-miterlimit="2.6131" stroke-linecap="round" stroke-linejoin="round"/>
<path d="M19.5898 50.6638L20.0454 54.3088L3.0959 61.8723L1 39.4552L10.8417 36.448L19.5898 50.6638Z" stroke="#252525" stroke-width="1.18464" stroke-miterlimit="2.6131" stroke-linecap="round" stroke-linejoin="round"/>
<path d="M11.844 49.4791C12.7552 49.388 13.6665 50.0259 13.7576 51.0283C13.8488 51.9395 13.2109 52.8508 12.2085 52.9419C11.2972 53.0331 10.3859 52.3952 10.2948 51.3928C10.2037 50.3904 10.9327 49.5702 11.844 49.4791Z" stroke="#252525" stroke-width="1.18464" stroke-miterlimit="2.6131" stroke-linecap="round" stroke-linejoin="round"/>
<path d="M54.127 36.2659V10.0215H57.9543V34.3523" stroke="#252525" stroke-width="1.18464" stroke-miterlimit="2.6131" stroke-linecap="round" stroke-linejoin="round"/>
<path d="M47.8398 33.4411V13.3933H51.6672V37.5418" stroke="#252525" stroke-width="1.18464" stroke-miterlimit="2.6131" stroke-linecap="round" stroke-linejoin="round"/>
<path d="M41.6416 31.1629V16.7649H45.4689V32.0741" stroke="#252525" stroke-width="1.18464" stroke-miterlimit="2.6131" stroke-linecap="round" stroke-linejoin="round"/>
<path d="M35.4453 29.8871V21.3213H39.1815V30.4339" stroke="#252525" stroke-width="1.18464" stroke-miterlimit="2.6131" stroke-linecap="round" stroke-linejoin="round"/>
<path d="M29.1582 29.6137V29.5226V26.1509H32.9855V29.6137" stroke="#252525" stroke-width="1.18464" stroke-miterlimit="2.6131" stroke-linecap="round" stroke-linejoin="round"/>
<path d="M23.599 30.3427C23.599 30.2516 23.599 30.2516 23.599 30.3427C22.87 28.1557 22.5967 25.8775 22.5967 23.5994C22.5967 11.115 32.7117 1 45.196 1C57.6804 1 67.7954 11.115 67.7954 23.5994C67.7954 26.6065 67.2487 29.4314 66.1551 32.0741" stroke="#252525" stroke-width="1.18464" stroke-miterlimit="2.6131" stroke-linecap="round" stroke-linejoin="round"/>
</svg>
