<svg width="73" height="64" viewBox="0 0 73 64" fill="none" xmlns="http://www.w3.org/2000/svg">
<path d="M39.6323 47.748C39.8145 47.1101 40.179 46.29 41.8193 46.1989C44.0064 46.1989 50.932 47.9303 53.2101 48.8415C54.3036 49.2971 55.0327 49.7528 55.2149 50.3907C55.6706 51.5753 52.2989 59.5033 51.7521 61.5992C51.4787 62.5105 51.3876 62.9661 50.5675 62.6016C47.4692 61.0525 44.3709 56.5873 40.9081 54.4914C39.8145 53.8535 38.721 53.3978 38.4477 52.5777C38.4477 52.4866 38.3565 52.3043 38.3565 52.1221C38.4476 51.0286 39.3589 48.7504 39.6323 47.748ZM48.8361 52.1221C48.3804 52.6688 48.4715 53.3978 49.0183 53.7623C49.5651 54.218 50.2941 54.1269 50.6586 53.5801C51.1142 53.0333 51.0231 52.3043 50.4763 51.8487C49.9296 51.5753 49.2006 51.6664 48.8361 52.1221Z" stroke="#252525" stroke-width="1.18464" stroke-miterlimit="10" stroke-linecap="round" stroke-linejoin="round"/>
<path d="M24.1406 52.1219C23.7761 51.5751 22.956 51.484 22.5004 51.9396C21.9536 52.3041 21.8625 53.1243 22.3181 53.6711C22.7737 54.2178 23.5027 54.3089 24.0495 53.8533C24.5051 53.3977 24.5963 52.6686 24.1406 52.1219ZM21.2246 61.6902C20.6778 59.5943 17.3061 51.6663 17.7618 50.4816C18.0352 49.8437 18.673 49.3881 19.7666 48.9325C22.0447 48.0212 28.9703 46.1987 31.1574 46.2898C32.7977 46.2898 33.071 47.201 33.3444 47.8389C33.7089 48.8413 34.529 51.1195 34.529 52.3042C34.529 52.4864 34.529 52.5775 34.4379 52.6687C34.1645 53.4888 33.071 53.9444 31.9775 54.5823C28.5147 56.6782 25.4164 61.1434 22.3181 62.6926C21.5891 63.0571 21.4068 62.6014 21.2246 61.6902Z" stroke="#252525" stroke-width="1.18464" stroke-miterlimit="10" stroke-linecap="round" stroke-linejoin="round"/>
<path d="M45.6468 35.9014C47.1049 33.6233 52.5724 28.8847 56.9465 27.1533C58.769 26.4243 60.5004 26.242 61.5028 27.0622C61.9585 27.3355 62.2318 27.7 62.323 28.0645C62.6875 24.8751 64.7834 19.4986 66.7882 16.856C67.6994 15.5802 69.522 13.9399 71.0711 15.3068C73.5315 17.4939 69.1575 33.441 66.3325 36.7216C61.5028 42.3714 57.0376 40.0021 53.1192 48.9325C50.841 48.0212 43.9154 46.1987 41.7284 46.2898C42.6396 43.3738 44.0066 38.3618 45.6468 35.9014Z" stroke="#252525" stroke-width="1.18464" stroke-miterlimit="10" stroke-linecap="round" stroke-linejoin="round"/>
<path d="M19.7668 48.9325C15.8483 40.0021 11.3832 42.3714 6.46233 36.7216C3.63741 33.441 -0.736677 17.4939 1.72374 15.3068C3.27289 13.9399 5.09543 15.5802 6.0067 16.856C8.01148 19.4986 10.1074 24.8751 10.4719 28.0645C10.563 27.7 10.8364 27.4267 11.292 27.0622C12.8412 25.8775 15.6661 26.7888 18.491 28.429C22.2272 30.6161 25.9634 34.0789 27.2392 35.8103C28.8794 38.2707 30.3375 43.2827 31.0665 46.1987C28.9706 46.1987 22.045 48.0212 19.7668 48.9325Z" stroke="#252525" stroke-width="1.18464" stroke-miterlimit="10" stroke-linecap="round" stroke-linejoin="round"/>
<path d="M54.577 16.0359V21.3212H49.2917C49.2917 18.4052 51.661 16.0359 54.577 16.0359Z" stroke="#252525" stroke-width="1.18464" stroke-miterlimit="10" stroke-linecap="round" stroke-linejoin="round"/>
<path d="M54.577 1.00002V6.28538C51.661 6.28538 49.2917 3.91607 49.2917 1.00002H54.577Z" stroke="#252525" stroke-width="1.18464" stroke-miterlimit="10" stroke-linecap="round" stroke-linejoin="round"/>
<path d="M36.8072 13.3933V11.5708C37.0806 11.6619 37.2628 11.753 37.354 11.9353C37.4451 12.1175 37.5362 12.2998 37.5362 12.4821C37.5362 12.7554 37.4451 12.9377 37.354 13.0288C37.2628 13.2111 37.0806 13.3022 36.8072 13.3933Z" stroke="#252525" stroke-width="1.18464" stroke-miterlimit="10" stroke-linecap="round" stroke-linejoin="round"/>
<path d="M36.1699 8.56357V10.1127C35.9876 10.0216 35.8054 9.93045 35.7142 9.7482C35.6231 9.65707 35.532 9.47482 35.532 9.29257C35.532 9.11032 35.6231 8.92806 35.7142 8.83694C35.8965 8.74581 35.9876 8.65469 36.1699 8.56357Z" stroke="#252525" stroke-width="1.18464" stroke-miterlimit="10" stroke-linecap="round" stroke-linejoin="round"/>
<path d="M35.7142 12.9377C35.6231 12.7554 35.532 12.5732 35.4408 12.2998L34.2562 12.3909C34.3473 12.9377 34.5296 13.3933 34.8941 13.7578C35.2586 14.1223 35.6231 14.3046 36.1699 14.3046V15.1247H36.8077V14.3046C37.4456 14.2135 37.8101 13.9401 38.1746 13.5756C38.5391 13.2111 38.6303 12.7554 38.6303 12.2087C38.6303 11.7531 38.5391 11.2974 38.2658 11.024C37.9924 10.7506 37.5367 10.4773 36.8077 10.295V8.56362C37.0811 8.65475 37.2634 8.92812 37.3545 9.29262L38.448 9.11036C38.3569 8.65473 38.1746 8.29024 37.9013 8.01686C37.6279 7.74348 37.2634 7.56123 36.7166 7.56123V7.10559H36.0787V7.56123C35.532 7.56123 35.1674 7.83461 34.8941 8.10799C34.6207 8.4725 34.4384 8.83699 34.4384 9.29262C34.4384 9.74826 34.6207 10.2039 34.8941 10.5684C35.1674 10.9329 35.6231 11.2063 36.1699 11.2974V13.2111C35.9876 13.2111 35.8965 13.1199 35.7142 12.9377Z" fill="#252525" stroke="#252525" stroke-width="0.5" stroke-miterlimit="10" stroke-linecap="round" stroke-linejoin="round"/>
<path d="M18.4911 1.00002H23.7765C23.7765 3.91607 21.4072 6.28538 18.4911 6.28538V1.00002Z" stroke="#252525" stroke-width="1.18464" stroke-miterlimit="10" stroke-linecap="round" stroke-linejoin="round"/>
<path d="M36.5342 17.2206C39.9059 17.2206 42.5485 14.4868 42.5485 11.2062C42.5485 7.83452 39.8147 5.19185 36.5342 5.19185C33.1625 5.19185 30.5198 7.92565 30.5198 11.2062C30.5198 14.4868 33.1625 17.2206 36.5342 17.2206ZM18.4911 6.28538C21.4072 6.28538 23.7765 3.91607 23.7765 1.00002H49.2919C49.2919 3.91607 51.6612 6.28538 54.5772 6.28538V16.0359C51.6612 16.0359 49.2919 18.4052 49.2919 21.3212H23.7765C23.7765 18.4052 21.4072 16.0359 18.4911 16.0359V6.28538Z" stroke="#252525" stroke-width="1.18464" stroke-miterlimit="10" stroke-linecap="round" stroke-linejoin="round"/>
<path d="M18.4911 16.0359C21.4072 16.0359 23.7765 18.4052 23.7765 21.3212H18.5822H18.4911V16.0359V16.0359Z" stroke="#252525" stroke-width="1.18464" stroke-miterlimit="10" stroke-linecap="round" stroke-linejoin="round"/>
<path d="M41.8192 46.1989C42.5482 43.374 44.0062 38.2709 45.6465 35.8105C47.1045 33.5323 52.5721 28.7937 56.9462 27.0623C58.7687 26.3333 60.5001 26.1511 61.5025 26.9712C61.9581 27.2446 62.2315 27.6091 62.3226 27.9736C63.5073 30.8896 55.9438 34.9903 54.3946 35.9016" stroke="#252525" stroke-width="1.18464" stroke-miterlimit="2.6131" stroke-linecap="round" stroke-linejoin="round"/>
<path d="M53.21 48.9325C57.1284 40.0021 61.5936 42.3714 66.4233 36.7216C69.2482 33.441 73.6223 17.4939 71.1619 15.3068C69.6127 13.9399 67.7902 15.5802 66.8789 16.856C64.8742 19.4986 62.6871 24.8751 62.4137 28.0645" stroke="#252525" stroke-width="1.18464" stroke-miterlimit="2.6131" stroke-linecap="round" stroke-linejoin="round"/>
<path d="M53.2101 48.9326C54.3036 49.3883 55.0327 49.8439 55.2149 50.4818C55.6706 51.6665 52.2989 59.5944 51.7521 61.6904C51.4787 62.6016 51.3876 63.0573 50.5675 62.6928C47.4692 61.1436 44.3709 56.6784 40.9081 54.5825C39.8145 53.9446 38.721 53.489 38.4477 52.6688C38.4477 52.5777 38.3565 52.3955 38.3565 52.2132C38.3565 51.0286 39.2678 48.7504 39.6323 47.748C39.8145 47.1101 40.179 46.29 41.8193 46.1989C44.0064 46.1989 50.932 48.0214 53.2101 48.9326Z" stroke="#252525" stroke-width="1.18464" stroke-miterlimit="2.6131" stroke-linecap="round" stroke-linejoin="round"/>
<path d="M48.8361 52.122C49.2917 51.5752 50.0207 51.4841 50.5675 51.9397C51.1142 52.3042 51.2054 53.1244 50.7497 53.6711C50.3852 54.2179 49.5651 54.309 49.1094 53.8534C48.4716 53.3977 48.3804 52.6687 48.8361 52.122Z" stroke="#252525" stroke-width="1.18464" stroke-miterlimit="2.6131" stroke-linecap="round" stroke-linejoin="round"/>
<path d="M10.5628 28.0645C9.37817 30.9806 16.9417 35.0813 18.4908 35.9925" stroke="#252525" stroke-width="1.18464" stroke-miterlimit="2.6131" stroke-linecap="round" stroke-linejoin="round"/>
<path d="M31.1575 46.1988C30.3374 43.3738 28.9705 38.2708 27.3302 35.8104C26.1456 33.9878 22.3182 30.525 18.5821 28.4291C15.7571 26.7888 12.9322 25.8776 11.3831 27.0622C10.9274 27.3356 10.6541 27.7001 10.5629 28.0646" stroke="#252525" stroke-width="1.18464" stroke-miterlimit="2.6131" stroke-linecap="round" stroke-linejoin="round"/>
<path d="M19.7668 48.9325C15.8483 40.0021 11.3832 42.3714 6.46233 36.7216C3.63741 33.441 -0.736677 17.4939 1.72374 15.3068C3.27289 13.9399 5.09543 15.5802 6.0067 16.856C8.01148 19.4986 10.1074 24.8751 10.4719 28.0645" stroke="#252525" stroke-width="1.18464" stroke-miterlimit="2.6131" stroke-linecap="round" stroke-linejoin="round"/>
<path d="M19.7666 48.9325C18.673 49.3881 17.944 49.8437 17.7618 50.4816C17.3061 51.6663 20.6778 59.5943 21.2246 61.6902C21.498 62.6014 21.5891 63.0571 22.4092 62.6926C25.5075 61.1434 28.6058 56.6782 32.0687 54.5823C33.1622 53.9444 34.2557 53.4888 34.529 52.6687C34.529 52.5775 34.6202 52.3953 34.6202 52.3042C34.6202 51.1195 33.7089 48.8413 33.4355 47.8389C33.1622 47.201 32.8888 46.3809 31.2485 46.2898C28.9703 46.1987 22.0447 48.0212 19.7666 48.9325Z" stroke="#252525" stroke-width="1.18464" stroke-miterlimit="2.6131" stroke-linecap="round" stroke-linejoin="round"/>
<path d="M24.141 52.122C23.7765 51.5752 22.9563 51.4841 22.5007 51.9397C21.9539 52.3042 21.8628 53.1244 22.3185 53.6711C22.7741 54.2179 23.5031 54.309 24.0499 53.8534C24.5055 53.3977 24.5966 52.6687 24.141 52.122Z" stroke="#252525" stroke-width="1.18464" stroke-miterlimit="2.6131" stroke-linecap="round" stroke-linejoin="round"/>
<path d="M18.4911 16.0359V6.2854" stroke="#252525" stroke-width="1.18464" stroke-miterlimit="10" stroke-linecap="round" stroke-linejoin="round"/>
<path d="M49.2917 21.3213H23.7763" stroke="#252525" stroke-width="1.18464" stroke-miterlimit="10" stroke-linecap="round" stroke-linejoin="round"/>
<path d="M54.5769 6.2854V16.0359" stroke="#252525" stroke-width="1.18464" stroke-miterlimit="10" stroke-linecap="round" stroke-linejoin="round"/>
<path d="M23.7763 1.00002H49.2917" stroke="#252525" stroke-width="1.18464" stroke-miterlimit="10" stroke-linecap="round" stroke-linejoin="round"/>
<path d="M49.2917 1.00002H54.577V6.28538C51.661 6.28538 49.2917 3.91607 49.2917 1.00002Z" stroke="#252525" stroke-width="1.18464" stroke-miterlimit="10" stroke-linecap="round" stroke-linejoin="round"/>
<path d="M23.7765 1.00002H18.4911V6.28538C21.4072 6.28538 23.7765 3.91607 23.7765 1.00002Z" stroke="#252525" stroke-width="1.18464" stroke-miterlimit="10" stroke-linecap="round" stroke-linejoin="round"/>
<path d="M23.7765 21.3212H18.5822H18.4911V16.0359C21.4072 16.0359 23.7765 18.4052 23.7765 21.3212Z" stroke="#252525" stroke-width="1.18464" stroke-miterlimit="10" stroke-linecap="round" stroke-linejoin="round"/>
<path d="M49.2917 21.3212H54.577V16.0359C51.661 16.0359 49.2917 18.4052 49.2917 21.3212Z" stroke="#252525" stroke-width="1.18464" stroke-miterlimit="10" stroke-linecap="round" stroke-linejoin="round"/>
<path d="M36.5344 5.19193C39.906 5.19193 42.5487 7.92573 42.5487 11.2063C42.5487 14.578 39.8149 17.2206 36.5344 17.2206C33.1627 17.2206 30.52 14.4868 30.52 11.2063C30.52 7.83461 33.1627 5.19193 36.5344 5.19193Z" stroke="#252525" stroke-width="1.18464" stroke-miterlimit="10" stroke-linecap="round" stroke-linejoin="round"/>
</svg>
