<svg width="70" height="73" viewBox="0 0 70 73" fill="none" xmlns="http://www.w3.org/2000/svg">
<path d="M37.0885 72.3544H32.1677C31.8943 72.3544 31.6209 72.1721 31.6209 71.8076L30.254 62.7861C28.796 62.5127 27.2468 62.1482 25.8799 61.6014L20.2301 68.7094C20.0478 68.8916 19.6833 68.9827 19.5011 68.8916L15.3093 66.4312C15.0359 66.2489 14.9447 65.9755 15.0359 65.7021L18.3164 57.2274C17.1318 56.225 16.1294 55.2226 15.127 54.038L6.65224 57.4096C6.37886 57.5008 6.10548 57.4097 5.92322 57.1363L3.46281 52.9444C3.28056 52.671 3.37168 52.3977 3.64506 52.2154L10.7529 46.5656C10.2062 45.1075 9.84166 43.6495 9.56828 42.1915L0.546758 40.8246C0.273378 40.8246 0 40.5513 0 40.2779V35.357C0 35.0836 0.182252 34.8103 0.546758 34.8103L9.56828 33.4434C9.84166 31.9854 10.2062 30.5273 10.7529 29.0693L3.64506 23.4195C3.37168 23.2372 3.37168 22.8727 3.46281 22.6905L5.92322 18.4986C6.10548 18.2252 6.37886 18.1341 6.65224 18.2252L15.127 21.5969C16.1294 20.4123 17.2229 19.3188 18.3164 18.4075L15.0359 9.93276C14.9447 9.65938 15.0359 9.38595 15.3093 9.2037L19.5011 6.74333C19.7745 6.56108 20.0478 6.65216 20.2301 6.92554L25.8799 14.0335C27.3379 13.4867 28.796 13.1221 30.254 12.8488L31.0741 7.56344C31.1653 7.19893 31.4386 7.01668 31.712 7.1078C32.0765 7.19893 32.2588 7.47232 32.1677 7.7457L31.3475 13.3956C31.3475 13.6689 31.0741 13.8512 30.8919 13.8512C29.2516 14.1246 27.5202 14.5802 25.8799 15.2181C25.6065 15.3092 25.3332 15.2181 25.242 15.0358L19.5922 8.01907L16.2205 9.93276L19.5011 18.3164C19.5922 18.5897 19.5011 18.8631 19.3188 18.9542C17.9519 20.0478 16.7673 21.2324 15.6738 22.5993C15.4915 22.7816 15.2181 22.8727 15.0359 22.7816L6.65224 19.501L4.73857 22.8727L11.7553 28.5225C11.9376 28.7048 12.0287 28.9782 11.9376 29.1604C11.2997 30.8007 10.8441 32.441 10.5707 34.1724C10.5707 34.4458 10.2973 34.628 10.115 34.628L1.18465 35.9949V39.9133L10.115 41.2802C10.3884 41.2802 10.5707 41.5536 10.5707 41.7359C10.8441 43.4673 11.2997 45.1076 11.9376 46.7478C12.0287 47.0212 11.9376 47.2946 11.7553 47.3857L4.73857 53.0356L6.65224 56.4073L15.0359 53.1267C15.3093 53.0356 15.5826 53.1267 15.6738 53.3089C16.7673 54.6758 18.043 55.9516 19.3188 56.954C19.5011 57.1363 19.5922 57.4097 19.5011 57.5919L16.2205 65.9756L19.5922 67.8892L25.242 60.8724C25.4243 60.6902 25.6977 60.599 25.8799 60.6902C27.5202 61.3281 29.1605 61.7837 30.8919 62.0571C31.1653 62.0571 31.3475 62.3305 31.3475 62.5127L32.7144 71.4431H36.6328L37.9997 62.5127C37.9997 62.2393 38.2731 62.0571 38.4554 62.0571C40.1868 61.7837 41.8271 61.3281 43.4673 60.6902C43.7407 60.599 44.0141 60.6902 44.1052 60.8724L49.7551 67.8892L53.1267 65.9756L49.8462 57.5919C49.7551 57.3185 49.8462 57.0451 50.0284 56.954C51.3953 55.8605 52.58 54.6758 53.6735 53.3089C53.8558 53.1267 54.1291 53.0356 54.3114 53.1267L62.695 56.4073L64.6087 53.0356L57.5919 47.3857C57.4097 47.2035 57.3186 46.9301 57.4097 46.7478C58.0476 45.1076 58.5032 43.4673 58.7766 41.7359C58.7766 41.4625 59.05 41.2802 59.2322 41.2802L68.1626 39.9133V35.9949L59.2322 34.628C58.9588 34.628 58.7766 34.3546 58.7766 34.1724C58.5032 32.441 58.0476 30.8007 57.4097 29.1604C57.3186 28.887 57.4097 28.6137 57.5919 28.5225L61.8749 25.0597C62.1483 24.8775 62.5128 24.8775 62.695 25.1508C62.8773 25.4242 62.8773 25.7887 62.6039 25.971L58.5943 29.1604C59.1411 30.6185 59.5056 32.0765 59.779 33.5345L68.8005 34.9014C69.0739 34.9014 69.3473 35.1748 69.3473 35.4482V40.369C69.3473 40.6424 69.165 40.9158 68.8005 40.9158L59.779 42.2827C59.5056 43.7407 59.1411 45.2898 58.5943 46.6567L65.7022 52.3066C65.9756 52.4888 65.9756 52.8533 65.8845 53.0356L63.424 57.2274C63.2418 57.5008 62.9684 57.5919 62.695 57.5007L54.2203 54.2202C53.2179 55.4049 52.1244 56.4984 51.0308 57.4096L54.4025 65.8844C54.4936 66.1578 54.4025 66.4311 54.1291 66.6134L49.8462 69.0738C49.5728 69.2561 49.2994 69.1649 49.1172 68.8916L43.4673 61.7837C42.0093 62.3305 40.5513 62.695 39.0933 62.9683L37.7264 71.9899C37.6352 72.081 37.453 72.3544 37.0885 72.3544ZM34.7192 50.7574C27.5202 50.7574 21.597 44.8342 21.597 37.6352C21.597 30.9829 26.5178 25.4242 33.0789 24.6041C33.4434 24.6041 33.7168 24.7863 33.7168 25.1508C33.7168 25.5153 33.5345 25.7887 33.17 25.7887C27.2468 26.5177 22.6905 31.6208 22.6905 37.6352C22.6905 44.1963 28.067 49.5728 34.6281 49.5728C41.1892 49.5728 46.5656 44.1963 46.5656 37.6352C46.5656 34.9925 45.6544 32.441 44.0141 30.3451C43.8318 30.0717 43.8318 29.7072 44.1052 29.525C44.3786 29.3427 44.7431 29.3427 44.9254 29.6161C46.7479 31.9853 47.6592 34.7191 47.6592 37.6352C47.7503 44.8342 41.9182 50.7574 34.7192 50.7574Z" fill="#252525"/>
<path d="M37.2709 35.5393C37.1798 35.5393 37.0887 35.5394 36.9975 35.4482C36.8153 35.3571 36.7242 35.1748 36.7242 34.9014V25.6977H31.7122C31.3477 25.6977 31.1654 25.4243 31.1654 25.0598V0.637897C31.1654 0.273391 31.4388 0 31.7122 0H68.0717C68.4362 0 68.6184 0.273391 68.6184 0.637897V25.0598C68.6184 25.4243 68.345 25.6977 68.0717 25.6977H51.5778L37.6354 35.3571C37.5443 35.5393 37.362 35.5393 37.2709 35.5393ZM32.259 24.6042H37.2709C37.6354 24.6042 37.8177 24.8775 37.8177 25.2421V33.8991L50.9399 24.7864C51.031 24.6953 51.1221 24.6953 51.3044 24.6953H67.4338V1.458H32.259V24.6042Z" fill="#252525"/>
<path d="M57.0448 6.92553H37.0881C36.7236 6.92553 36.5414 6.6522 36.5414 6.28769C36.5414 5.92319 36.8148 5.6498 37.0881 5.6498H57.0448C57.4093 5.6498 57.5916 5.92319 57.5916 6.28769C57.5916 6.6522 57.3182 6.92553 57.0448 6.92553Z" fill="#252525"/>
<path d="M62.6037 6.92553H59.5966C59.232 6.92553 59.0498 6.6522 59.0498 6.28769C59.0498 5.92319 59.3232 5.6498 59.5966 5.6498H62.6037C62.9682 5.6498 63.1505 5.92319 63.1505 6.28769C63.2416 6.6522 62.9682 6.92553 62.6037 6.92553Z" fill="#252525"/>
<path d="M62.6041 10.2062H42.1918C41.8272 10.2062 41.645 9.93284 41.645 9.56833C41.645 9.20383 41.9184 8.93044 42.1918 8.93044H62.6041C62.9686 8.93044 63.1508 9.20383 63.1508 9.56833C63.242 9.93284 62.9686 10.2062 62.6041 10.2062Z" fill="#252525"/>
<path d="M40.0953 10.2062H37.0881C36.7236 10.2062 36.5414 9.93284 36.5414 9.56833C36.5414 9.20383 36.8148 8.93044 37.0881 8.93044H40.0953C40.4598 8.93044 40.6421 9.20383 40.6421 9.56833C40.7332 9.93284 40.4598 10.2062 40.0953 10.2062Z" fill="#252525"/>
<path d="M55.2223 13.5779H37.0881C36.7236 13.5779 36.5414 13.3045 36.5414 12.94C36.5414 12.5755 36.8148 12.3021 37.0881 12.3021H55.2223C55.5868 12.3021 55.7691 12.5755 55.7691 12.94C55.8602 13.3045 55.5868 13.5779 55.2223 13.5779Z" fill="#252525"/>
<path d="M62.6037 13.5779H59.5966C59.232 13.5779 59.0498 13.3045 59.0498 12.94C59.0498 12.5755 59.3232 12.3021 59.5966 12.3021H62.6037C62.9682 12.3021 63.1505 12.5755 63.1505 12.94C63.2416 13.3045 62.9682 13.5779 62.6037 13.5779Z" fill="#252525"/>
<path d="M62.6037 16.8585H41.8269C41.4624 16.8585 41.2801 16.5851 41.2801 16.2206C41.2801 15.8561 41.5535 15.5827 41.8269 15.5827H62.6037C62.9682 15.5827 63.1505 15.8561 63.1505 16.2206C63.2416 16.6762 62.9682 16.8585 62.6037 16.8585Z" fill="#252525"/>
<path d="M40.0953 16.8585H37.0881C36.7236 16.8585 36.5414 16.5851 36.5414 16.2206C36.5414 15.8561 36.8148 15.5827 37.0881 15.5827H40.0953C40.4598 15.5827 40.6421 15.8561 40.6421 16.2206C40.7332 16.6762 40.4598 16.8585 40.0953 16.8585Z" fill="#252525"/>
<path d="M56.6807 20.2302H36.9974C36.6329 20.2302 36.4506 19.9568 36.4506 19.5923C36.4506 19.2278 36.724 18.9544 36.9974 18.9544H56.6807C57.0452 18.9544 57.2274 19.2278 57.2274 19.5923C57.2274 19.9568 57.0452 20.2302 56.6807 20.2302Z" fill="#252525"/>
<path d="M62.6037 20.2302H59.5966C59.232 20.2302 59.0498 19.9568 59.0498 19.5923C59.0498 19.2278 59.3232 18.9544 59.5966 18.9544H62.6037C62.9682 18.9544 63.1505 19.2278 63.1505 19.5923C63.1505 19.9568 62.9682 20.2302 62.6037 20.2302Z" fill="#252525"/>
</svg>
