<svg width="62" height="73" viewBox="0 0 62 73" fill="none" xmlns="http://www.w3.org/2000/svg">
<path d="M10.3064 11.4819C7.11696 11.4819 4.56543 8.93039 4.56543 5.74096C4.56543 2.55153 7.11696 0 10.3064 0C13.4958 0 16.0474 2.55153 16.0474 5.74096C16.0474 8.93039 13.4958 11.4819 10.3064 11.4819ZM10.3064 1.27577C7.75485 1.27577 5.75006 3.28055 5.75006 5.83209C5.75006 8.38363 7.75485 10.3884 10.3064 10.3884C12.8579 10.3884 14.8627 8.38363 14.8627 5.83209C14.8627 3.28055 12.8579 1.27577 10.3064 1.27577Z" fill="#252525"/>
<path d="M18.2342 29.1606C16.9584 29.1606 15.956 28.1582 15.956 26.8824V24.8776C15.956 24.5131 16.2294 24.2397 16.5939 24.2397C16.9584 24.2397 17.2318 24.5131 17.2318 24.8776V26.9735C17.2318 27.6114 17.7786 28.0671 18.3253 28.0671C18.9632 28.0671 19.4189 27.5203 19.4189 26.8824V18.8633C19.4189 16.1295 17.2318 13.9424 14.498 13.9424H6.56999C3.8362 13.9424 1.64917 16.1295 1.64917 18.8633V26.9735C1.64917 27.6114 2.19594 28.0671 2.74269 28.0671C3.38058 28.0671 3.8362 27.5203 3.8362 26.9735V24.8776C3.8362 24.5131 4.10959 24.2397 4.47409 24.2397C4.8386 24.2397 5.11199 24.5131 5.11199 24.8776V26.9735C5.11199 28.2493 4.1096 29.2517 2.83383 29.2517C1.55806 29.2517 0.555664 28.2493 0.555664 26.9735V18.8633C0.555664 15.4916 3.28944 12.7578 6.66112 12.7578H14.5891C17.9608 12.7578 20.6946 15.4916 20.6946 18.8633V26.9735C20.4212 28.2493 19.4188 29.1606 18.2342 29.1606Z" fill="#252525"/>
<path d="M16.5025 32.4412H4.47383C4.10933 32.4412 3.83594 32.1679 3.83594 31.8033V22.5996C3.83594 22.2351 4.10933 21.9617 4.47383 21.9617C4.83834 21.9617 5.11173 22.2351 5.11173 22.5996V31.1655H15.9558V22.5996C15.9558 22.2351 16.2291 21.9617 16.5936 21.9617C16.9582 21.9617 17.2315 22.2351 17.2315 22.5996V31.8033C17.0493 32.1679 16.7759 32.4412 16.5025 32.4412Z" fill="#252525"/>
<path d="M10.4884 24.1484C10.1239 24.1484 9.85047 23.875 9.85047 23.5105V16.4938H8.48357C8.11907 16.4938 7.8457 16.2204 7.8457 15.8559C7.8457 15.4914 8.11907 15.218 8.48357 15.218H12.402C12.7665 15.218 13.0399 15.4914 13.0399 15.8559C13.0399 16.2204 12.7665 16.4938 12.402 16.4938H11.0351V23.5105C11.0351 23.875 10.7617 24.1484 10.4884 24.1484Z" fill="#252525"/>
<path d="M43.9314 51.2131C40.742 51.2131 38.1904 48.6616 38.1904 45.4722C38.1904 42.2828 40.742 39.7312 43.9314 39.7312C47.1208 39.7312 49.6723 42.2828 49.6723 45.4722C49.6723 48.6616 47.1208 51.2131 43.9314 51.2131ZM43.9314 40.9159C41.3798 40.9159 39.3751 42.9206 39.3751 45.4722C39.3751 48.0237 41.3798 50.0285 43.9314 50.0285C46.4829 50.0285 48.4877 48.0237 48.4877 45.4722C48.4877 43.0118 46.4829 40.9159 43.9314 40.9159Z" fill="#252525"/>
<path d="M40.4696 45.8366C39.8317 45.8366 39.1938 45.7455 38.647 45.5633C38.3736 45.4721 38.1914 45.1076 38.2825 44.8342C38.3736 44.5609 38.7382 44.3786 39.0115 44.4697C39.4672 44.652 40.0139 44.7431 40.4696 44.7431C41.9276 44.7431 43.2945 44.1052 44.1146 42.9206C44.2057 42.8295 44.388 42.7383 44.4791 42.6472C44.6614 42.6472 44.8436 42.6472 44.9348 42.7383C46.0283 43.5585 47.3951 43.923 48.762 43.6496C49.1265 43.5585 49.4 43.8319 49.4911 44.1052C49.5822 44.4698 49.3088 44.7431 49.0355 44.8342C47.5774 45.1076 45.9371 44.8343 44.6613 44.0141C43.659 45.1076 42.1098 45.8366 40.4696 45.8366Z" fill="#252525"/>
<path d="M51.7684 68.8916C50.4926 68.8916 49.4902 67.8892 49.4902 66.6134V64.5175C49.4902 64.153 49.7636 63.8796 50.1281 63.8796C50.4926 63.8796 50.766 64.153 50.766 64.5175V66.6134C50.766 67.2513 51.2216 67.7069 51.8595 67.7069C52.5885 67.7069 52.953 67.0691 52.953 66.5223V58.5032C52.953 55.7694 50.766 53.5823 48.0322 53.5823H40.1042C37.3704 53.5823 35.1834 55.7694 35.1834 58.5032V66.6134C35.1834 67.2513 35.639 67.7069 36.2769 67.7069C36.9148 67.7069 37.3704 67.1602 37.3704 66.6134V64.5175C37.3704 64.153 37.6438 63.8796 38.0083 63.8796C38.3728 63.8796 38.6462 64.153 38.6462 64.5175V66.6134C38.6462 67.8892 37.6438 68.8916 36.368 68.8916C35.0922 68.8916 34.0898 67.8892 34.0898 66.6134V58.5032C34.0898 55.1315 36.8236 52.3977 40.1953 52.3977H48.1233C51.495 52.3977 54.2288 55.1315 54.2288 58.5032V66.6134C53.9554 67.9803 53.0442 68.8916 51.7684 68.8916Z" fill="#252525"/>
<path d="M50.0377 72.1722H38.009C37.6445 72.1722 37.3711 71.8988 37.3711 71.5343V62.3305C37.3711 61.966 37.6445 61.6926 38.009 61.6926C38.3735 61.6926 38.6469 61.966 38.6469 62.3305V70.9875H49.491V62.3305C49.491 61.966 49.7643 61.6926 50.1288 61.6926C50.4933 61.6926 50.7667 61.966 50.7667 62.3305V71.5343C50.6756 71.8988 50.4022 72.1722 50.0377 72.1722Z" fill="#252525"/>
<path d="M44.0226 63.8796C43.6581 63.8796 43.3847 63.6062 43.3847 63.2417V56.225H42.0178C41.6533 56.225 41.3799 55.9516 41.3799 55.5871C41.3799 55.2226 41.6533 54.9492 42.0178 54.9492H45.9362C46.3007 54.9492 46.5741 55.2226 46.5741 55.5871C46.5741 55.9516 46.3007 56.225 45.9362 56.225H44.5693V63.2417C44.6604 63.6062 44.3871 63.8796 44.0226 63.8796Z" fill="#252525"/>
<path d="M31.9025 37.9087C31.8114 37.9087 31.7203 37.9087 31.6291 37.8176C31.4469 37.7264 31.2646 37.4531 31.3558 37.1797L32.5404 28.9783H27.2551C26.8906 28.9783 26.6172 28.7049 26.6172 28.3404V6.6523C26.6172 6.28779 26.8906 6.0144 27.2551 6.0144H60.8808C61.2453 6.0144 61.5186 6.28779 61.5186 6.6523V28.3404C61.5186 28.7049 61.2453 28.9783 60.8808 28.9783H42.7466L32.3581 37.7264C32.1759 37.9087 32.0848 37.9087 31.9025 37.9087ZM27.893 27.8848H33.2694C33.4517 27.8848 33.6339 27.9759 33.725 28.067C33.8162 28.1582 33.9073 28.3404 33.9073 28.5227L32.8138 35.8128L42.1999 27.9759C42.291 27.8848 42.4732 27.7937 42.5643 27.7937H60.334V7.2902H27.893V27.8848Z" fill="#252525"/>
<path d="M48.1231 11.0263H33.3606C32.996 11.0263 32.7227 10.7529 32.7227 10.3884C32.7227 10.0239 32.996 9.75049 33.3606 9.75049H48.1231C48.4876 9.75049 48.7609 10.0239 48.7609 10.3884C48.7609 10.7529 48.3964 11.0263 48.1231 11.0263Z" fill="#252525"/>
<path d="M54.8672 11.0263H51.1311C50.7666 11.0263 50.4932 10.7529 50.4932 10.3884C50.4932 10.0239 50.7666 9.75049 51.1311 9.75049H54.8672C55.2317 9.75049 55.5051 10.0239 55.5051 10.3884C55.5051 10.7529 55.1406 11.0263 54.8672 11.0263Z" fill="#252525"/>
<path d="M6.93439 6.10544C6.29651 6.10544 5.65862 6.01433 5.11186 5.83207C4.83848 5.74095 4.65621 5.37643 4.74734 5.10305C4.83846 4.82967 5.20298 4.64742 5.47636 4.73855C5.932 4.9208 6.47876 5.01194 6.93439 5.01194C8.39242 5.01194 9.66819 4.37406 10.5795 3.18941C10.6706 3.09829 10.8528 3.00714 10.944 2.91602C11.1262 2.91602 11.3085 2.91602 11.3996 3.00715C12.2197 3.64503 13.2221 4.00954 14.2245 4.00954C14.589 4.00954 14.8624 4.00954 15.1358 3.91841C15.4092 3.82729 15.7737 4.00954 15.8648 4.37405C15.9559 4.73855 15.7737 5.01192 15.4091 5.10305C15.0446 5.19417 14.589 5.19418 14.2245 5.19418C13.131 5.19418 12.0375 4.82967 11.1262 4.28291C10.1238 5.46756 8.57467 6.10544 6.93439 6.10544Z" fill="#252525"/>
<path d="M28.6231 64.4265H9.75994C9.39543 64.4265 9.12207 64.1532 9.12207 63.7887V34.1726C9.12207 33.8081 9.39543 33.5347 9.75994 33.5347C10.1244 33.5347 10.3978 33.8081 10.3978 34.1726V63.1508H28.7142C29.0787 63.1508 29.3521 63.4242 29.3521 63.7887C29.3521 64.1532 28.8965 64.4265 28.6231 64.4265Z" fill="#252525"/>
<path d="M54.8665 14.3978H40.0129C39.6484 14.3978 39.375 14.1244 39.375 13.7599C39.375 13.3954 39.6484 13.1221 40.0129 13.1221H54.8665C55.231 13.1221 55.5044 13.3954 55.5044 13.7599C55.4133 14.1244 55.1399 14.3978 54.8665 14.3978Z" fill="#252525"/>
<path d="M37.0069 14.3978H33.2707C32.9061 14.3978 32.6328 14.1244 32.6328 13.7599C32.6328 13.3954 32.9061 13.1221 33.2707 13.1221H37.0069C37.3714 13.1221 37.6448 13.3954 37.6448 13.7599C37.6448 14.1244 37.3714 14.3978 37.0069 14.3978Z" fill="#252525"/>
<path d="M48.1231 17.8607H33.3606C32.996 17.8607 32.7227 17.5874 32.7227 17.2229C32.7227 16.8584 32.996 16.585 33.3606 16.585H48.1231C48.4876 16.585 48.7609 16.8584 48.7609 17.2229C48.7609 17.5874 48.3964 17.8607 48.1231 17.8607Z" fill="#252525"/>
<path d="M54.8672 17.8607H51.1311C50.7666 17.8607 50.4932 17.5874 50.4932 17.2229C50.4932 16.8584 50.7666 16.585 51.1311 16.585H54.8672C55.2317 16.585 55.5051 16.8584 55.5051 17.2229C55.5051 17.5874 55.1406 17.8607 54.8672 17.8607Z" fill="#252525"/>
<path d="M54.8665 21.2323H40.0129C39.6484 21.2323 39.375 20.9589 39.375 20.5944C39.375 20.2299 39.6484 19.9565 40.0129 19.9565H54.8665C55.231 19.9565 55.5044 20.2299 55.5044 20.5944C55.4133 20.9589 55.1399 21.2323 54.8665 21.2323Z" fill="#252525"/>
<path d="M37.0069 21.2323H33.2707C32.9061 21.2323 32.6328 20.9589 32.6328 20.5944C32.6328 20.2299 32.9061 19.9565 33.2707 19.9565H37.0069C37.3714 19.9565 37.6448 20.2299 37.6448 20.5944C37.6448 20.9589 37.3714 21.2323 37.0069 21.2323Z" fill="#252525"/>
<path d="M48.1231 24.6042H33.3606C32.996 24.6042 32.7227 24.3308 32.7227 23.9663C32.7227 23.6018 32.996 23.3284 33.3606 23.3284H48.1231C48.4876 23.3284 48.7609 23.6018 48.7609 23.9663C48.6698 24.3308 48.3964 24.6042 48.1231 24.6042Z" fill="#252525"/>
<path d="M54.8672 24.6042H51.1311C50.7666 24.6042 50.4932 24.3308 50.4932 23.9663C50.4932 23.6018 50.7666 23.3284 51.1311 23.3284H54.8672C55.2317 23.3284 55.5051 23.6018 55.5051 23.9663C55.414 24.3308 55.1406 24.6042 54.8672 24.6042Z" fill="#252525"/>
</svg>
