<svg width="53" height="73" viewBox="0 0 53 73" fill="none" xmlns="http://www.w3.org/2000/svg">
<path d="M51.4185 72.1538H0.752127C0.387621 72.1538 0.114258 71.8805 0.114258 71.5159V42.9934C0.114258 42.6289 0.387621 42.3555 0.752127 42.3555H51.4185C51.783 42.3555 52.0564 42.6289 52.0564 42.9934V71.5159C51.9652 71.8805 51.6918 72.1538 51.4185 72.1538ZM1.29889 70.9692H50.7806V43.6312H1.29889V70.9692Z" fill="#252525"/>
<path d="M51.4185 50.9212C47.0445 50.9212 43.3994 47.3673 43.3994 42.9021C43.3994 42.5376 43.6728 42.2642 44.0373 42.2642H51.4185C51.783 42.2642 52.0564 42.5376 52.0564 42.9021V50.2833C51.9653 50.739 51.6919 50.9212 51.4185 50.9212ZM44.584 43.54C44.8574 46.8205 47.5001 49.4632 50.7807 49.7365V43.54H44.584Z" fill="#252525"/>
<path d="M0.661334 50.9212C0.296828 50.9212 0.0234375 50.6478 0.0234375 50.2833V42.9021C0.0234375 42.5376 0.296828 42.2642 0.661334 42.2642H8.04256C8.40706 42.2642 8.68045 42.5376 8.68045 42.9021C8.68045 47.3673 5.12653 50.9212 0.661334 50.9212ZM1.2992 43.54V49.7365C4.57976 49.4632 7.22244 46.8205 7.49582 43.54H1.2992Z" fill="#252525"/>
<path d="M8.13338 72.1536H0.752127C0.387621 72.1536 0.114258 71.8802 0.114258 71.5157V64.1344C0.114258 63.7699 0.387621 63.4966 0.752127 63.4966C5.1262 63.4966 8.68015 66.9594 8.77127 71.3334C8.77127 71.4246 8.77127 71.4246 8.77127 71.5157C8.68015 71.8802 8.40676 72.1536 8.13338 72.1536ZM1.29889 70.9689H7.49551C7.22213 67.6884 4.57944 65.0457 1.29889 64.7723V70.9689Z" fill="#252525"/>
<path d="M51.4185 72.1536H44.0373C43.6728 72.1536 43.3994 71.8802 43.3994 71.5157C43.3994 67.1416 46.9533 63.4966 51.4185 63.4966C51.783 63.4966 52.0564 63.7699 52.0564 64.1344V71.5157C51.9653 71.8802 51.6919 72.1536 51.4185 72.1536ZM44.584 70.9689H50.7807V64.7723C47.5001 65.0457 44.8574 67.6884 44.584 70.9689Z" fill="#252525"/>
<path d="M26.0853 66.3217C21.0733 66.3217 16.9727 62.221 16.9727 57.2091C16.9727 52.1971 21.0733 48.0964 26.0853 48.0964C31.0973 48.0964 35.198 52.1971 35.198 57.2091C35.1068 62.221 31.0061 66.3217 26.0853 66.3217ZM26.0853 49.3722C21.7112 49.3722 18.1573 52.9261 18.1573 57.3002C18.1573 61.6743 21.7112 65.2282 26.0853 65.2282C30.4594 65.2282 34.0133 61.6743 34.0133 57.3002C33.9222 52.9261 30.3682 49.3722 26.0853 49.3722Z" fill="#252525"/>
<path d="M33.5579 38.2545C31.462 38.2545 29.2749 37.9811 26.9056 37.5255C26.6323 37.4344 26.45 37.2521 26.45 37.0699C24.8097 28.7774 26.0855 22.2162 30.0951 18.1155C33.0111 15.1995 37.1118 13.7415 42.3971 13.7415C44.4931 13.7415 46.6801 14.0148 49.0494 14.4705C49.3227 14.5616 49.505 14.7438 49.505 14.9261C51.1453 23.2186 49.8695 29.7798 45.8599 33.8804C42.9439 36.7965 38.7521 38.2545 33.5579 38.2545ZM27.5435 36.432C29.6394 36.7965 31.7353 37.0699 33.5579 37.0699C38.4787 37.0699 42.306 35.7029 45.0398 33.0603C48.776 29.3241 49.9607 23.3097 48.5026 15.564C46.4067 15.1995 44.3108 14.9261 42.4883 14.9261C37.5674 14.9261 33.7401 16.293 31.0063 18.9357C27.2701 22.6719 26.0855 28.6862 27.5435 36.432Z" fill="#252525"/>
<path d="M20.8914 38.4368C17.2463 38.4368 14.3303 37.4343 12.3255 35.3384C9.50057 32.5135 8.58931 27.9572 9.77396 22.2162C9.86508 21.9428 10.0473 21.7606 10.2296 21.7606C11.8699 21.3961 13.419 21.3049 14.7859 21.3049C18.431 21.3049 21.347 22.3073 23.3518 24.4033C26.1767 27.2282 27.088 31.7845 25.9033 37.5255C25.8122 37.7989 25.6299 37.9811 25.4477 37.9811C23.8985 38.2545 22.3494 38.4368 20.8914 38.4368ZM10.8675 22.8541C9.95619 28.0483 10.6852 32.0579 13.2368 34.5183C15.0593 36.3408 17.6108 37.2521 20.9825 37.2521C22.2583 37.2521 23.534 37.161 24.9921 36.8876C25.9033 31.6934 25.1743 27.6838 22.7139 25.2234C20.0712 22.6719 16.0617 21.8517 10.8675 22.8541Z" fill="#252525"/>
<path d="M26.9963 37.5257C26.814 37.5257 26.7229 37.4346 26.6318 37.3435C26.3584 37.1612 26.3584 36.7056 26.6318 36.5233L41.3031 21.2141C41.4854 20.9407 41.941 20.9407 42.1233 21.2141C42.3967 21.3963 42.3967 21.852 42.1233 22.0342L27.4519 37.3435C27.3608 37.5257 27.1785 37.5257 26.9963 37.5257Z" fill="#252525"/>
<path d="M26.0861 43.5398C25.7216 43.5398 25.4482 43.2664 25.4482 42.9019V11.1899C25.4482 10.8254 25.7216 10.552 26.0861 10.552C26.4506 10.552 26.724 10.8254 26.724 11.1899V42.9019C26.6329 43.2664 26.3595 43.5398 26.0861 43.5398Z" fill="#252525"/>
<path d="M36.1095 28.0485C35.8361 28.0485 35.5627 27.7751 35.5627 27.5018L34.9248 19.1181C34.9248 18.7536 35.1071 18.4802 35.4716 18.4802C35.7449 18.4802 36.1095 18.6625 36.1095 19.027L36.7473 27.4106C36.7473 27.7751 36.474 28.0485 36.1095 28.0485Z" fill="#252525"/>
<path d="M30.4592 33.9717C30.1858 33.9717 29.9124 33.7895 29.9124 33.5161C29.8213 33.1516 30.0947 32.8782 30.368 32.8782L39.3896 31.4202C39.663 31.3291 40.0275 31.6025 40.0275 31.8759C40.1186 32.2404 39.8452 32.5137 39.5718 32.5137L30.5503 33.9717C30.5503 33.9717 30.5503 33.9717 30.4592 33.9717Z" fill="#252525"/>
<path d="M25.3568 37.8902C25.1745 37.8902 25.0834 37.799 24.9011 37.7079L14.7861 27.1373C14.6039 26.8639 14.6039 26.4994 14.7861 26.3171C15.0595 26.1349 15.424 26.1349 15.6062 26.3171L25.7213 36.8878C25.9035 37.1612 25.9035 37.5257 25.7213 37.7079C25.7213 37.8902 25.539 37.8902 25.3568 37.8902Z" fill="#252525"/>
<path d="M14.148 31.7846C13.8746 31.7846 13.6924 31.6024 13.6012 31.4201C13.5101 31.1467 13.6012 30.7822 13.9657 30.6911L17.7019 29.2331C17.9753 29.1419 18.3398 29.2331 18.4309 29.5976C18.5221 29.871 18.4309 30.2355 18.0664 30.3266L14.3303 31.7846C14.2391 31.7846 14.2391 31.7846 14.148 31.7846Z" fill="#252525"/>
<path d="M22.0761 34.4275C21.985 34.4275 21.985 34.4275 22.0761 34.4275C21.7116 34.4275 21.4383 34.1541 21.5294 33.7896L21.8939 28.1398C21.8939 27.7752 22.1673 27.593 22.5318 27.593C22.8963 27.593 23.0785 27.8664 23.0785 28.2309L22.714 33.8808C22.6229 34.1541 22.3495 34.4275 22.0761 34.4275Z" fill="#252525"/>
<path d="M4.67032 22.034C3.21229 22.034 1.93652 20.8494 1.93652 19.3002C1.93652 17.8422 3.12117 16.5664 4.67032 16.5664C6.12834 16.5664 7.40411 17.7511 7.40411 19.3002C7.40411 20.8494 6.21947 22.034 4.67032 22.034ZM4.67032 17.8421C3.85018 17.8421 3.12116 18.5712 3.12116 19.3913C3.12116 20.2114 3.85018 20.9405 4.67032 20.9405C5.49046 20.9405 6.21945 20.2114 6.21945 19.3913C6.21945 18.48 5.49046 17.8421 4.67032 17.8421Z" fill="#252525"/>
<path d="M47.3188 7.18048C45.8607 7.18048 44.585 5.99584 44.585 4.44669C44.585 2.98866 45.7696 1.71289 47.3188 1.71289C48.7768 1.71289 50.0526 2.89753 50.0526 4.44669C50.0526 5.90471 48.7768 7.18048 47.3188 7.18048ZM47.3188 2.89758C46.4986 2.89758 45.7696 3.62655 45.7696 4.44669C45.7696 5.26682 46.4986 5.99585 47.3188 5.99585C48.1389 5.99585 48.8679 5.26682 48.8679 4.44669C48.8679 3.62655 48.1389 2.89758 47.3188 2.89758Z" fill="#252525"/>
<path d="M22.897 12.7392C20.2543 12.7392 18.0673 12.0102 16.6093 10.4611C14.5134 8.36515 13.8755 4.99344 14.6956 0.801622C14.7867 0.528242 14.969 0.345989 15.1512 0.345989C19.3431 -0.474149 22.7147 0.16377 24.8107 2.25968C26.9066 4.35559 27.5444 7.72725 26.7243 11.9191C26.6332 12.1924 26.4509 12.3747 26.2687 12.3747C25.084 12.6481 23.9905 12.7392 22.897 12.7392ZM15.7891 1.43952C15.1512 5.08458 15.698 7.9095 17.4294 9.6409C18.7052 10.9167 20.5277 11.5546 22.897 11.5546C23.7171 11.5546 24.6284 11.4634 25.6308 11.2812C26.2687 7.63611 25.7219 4.81119 23.9905 3.07978C22.2591 1.43951 19.4342 0.801633 15.7891 1.43952Z" fill="#252525"/>
<path d="M26.1769 12.3747C25.9946 12.3747 25.9035 12.2835 25.7212 12.1924L20.6181 6.81598C20.4359 6.5426 20.4359 6.17807 20.6181 5.99582C20.8915 5.81357 21.256 5.81357 21.4383 5.99582L26.5414 11.3723C26.7236 11.6457 26.7236 12.0102 26.5414 12.1924C26.4502 12.3747 26.3591 12.3747 26.1769 12.3747Z" fill="#252525"/>
</svg>
