<svg width="72" height="67" viewBox="0 0 72 67" fill="none" xmlns="http://www.w3.org/2000/svg">
<path d="M71.352 54.2203H54.767C54.4025 54.2203 54.1291 53.9469 54.1291 53.5824C54.1291 53.2179 54.4025 52.9445 54.767 52.9445H70.8053V1.18463H1.09352V52.9445H17.1318C17.4963 52.9445 17.6785 53.2179 17.6785 53.5824C17.6785 53.9469 17.4052 54.2203 17.1318 54.2203H0.546765C0.182259 54.2203 0 53.9469 0 53.5824V0.637897C0 0.273391 0.273385 0 0.546765 0H71.352C71.7166 0 71.9899 0.273391 71.9899 0.637897V53.5824C71.8988 53.9469 71.6254 54.2203 71.352 54.2203Z" fill="black"/>
<path d="M70.8055 12.94H28.1583C28.0671 12.94 27.976 12.94 27.7938 12.8488L22.5995 9.47715H0.911436C0.54693 9.47715 0.364685 9.20379 0.364685 8.83928C0.364685 8.47478 0.638056 8.20139 0.911436 8.20139H22.7818C22.8729 8.20139 22.9641 8.20139 23.1463 8.29252L28.3405 11.6642H70.8055C71.17 11.6642 71.4434 11.9376 71.4434 12.3021C71.4434 12.6666 71.17 12.94 70.8055 12.94Z" fill="black"/>
<path d="M60.3259 7.47243H57.9566C57.5921 7.47243 57.3188 7.19904 57.3188 6.83454C57.3188 6.47003 57.5921 6.19664 57.9566 6.19664H60.3259C60.6904 6.19664 60.9638 6.47003 60.9638 6.83454C60.8727 7.19904 60.5993 7.47243 60.3259 7.47243Z" fill="black"/>
<path d="M64.2442 7.47243H61.8749C61.5104 7.47243 61.237 7.19904 61.237 6.83454C61.237 6.47003 61.5104 6.19664 61.8749 6.19664H64.2442C64.6087 6.19664 64.8821 6.47003 64.8821 6.83454C64.7909 7.19904 64.6087 7.47243 64.2442 7.47243Z" fill="black"/>
<path d="M68.1624 7.47243H65.7931C65.4286 7.47243 65.1553 7.19904 65.1553 6.83454C65.1553 6.47003 65.4286 6.19664 65.7931 6.19664H68.1624C68.5269 6.19664 68.8003 6.47003 68.8003 6.83454C68.8003 7.19904 68.5269 7.47243 68.1624 7.47243Z" fill="black"/>
<path d="M37.3615 66.0667H34.3543C34.081 66.0667 33.8076 65.8844 33.8076 65.5199L32.9874 60.1434C32.1673 59.9612 31.3472 59.7789 30.527 59.5055L27.1554 63.6974C26.9731 63.9707 26.6086 63.9708 26.4264 63.8796L23.7837 62.4216C23.5103 62.2393 23.4192 61.966 23.5103 61.6926L25.5151 56.6806C24.8772 56.1339 24.3304 55.5871 23.7837 54.8581L18.7717 56.8629C18.4983 56.954 18.225 56.8629 18.0427 56.5895L16.5847 53.9468C16.4024 53.6735 16.4936 53.4001 16.7669 53.2178L20.9587 49.8461C20.6854 49.026 20.5031 48.2059 20.3209 47.3857L14.9444 46.5656C14.671 46.5656 14.3976 46.2922 14.3976 46.0188V44.6519C14.3976 44.2874 14.671 44.014 14.9444 44.014C15.3089 44.014 15.4912 44.2874 15.4912 44.6519V45.6543L20.7765 46.4745C21.0499 46.4745 21.2321 46.7478 21.2321 46.9301C21.4144 47.9325 21.6878 48.9349 22.0523 49.9373C22.1434 50.2106 22.0523 50.484 21.87 50.5752L17.6782 53.8557L18.6806 55.5871L23.6014 53.6734C23.8748 53.5823 24.1482 53.6735 24.2393 53.8557C24.8772 54.6758 25.6973 55.4049 26.4264 56.0427C26.6086 56.225 26.6997 56.4984 26.6086 56.6806L24.6949 61.6015L26.4264 62.6039L29.7069 58.412C29.8891 58.2298 30.1625 58.1386 30.3448 58.2298C31.3472 58.5943 32.3496 58.8676 33.3519 59.0499C33.6253 59.0499 33.8076 59.3233 33.8076 59.5055L34.6277 64.7909H36.6325L37.4526 59.5055C37.4526 59.2322 37.726 59.0499 37.9083 59.0499C38.9107 58.8676 39.9131 58.5943 40.9155 58.2298C41.1888 58.1386 41.4622 58.2298 41.5533 58.412L44.8339 62.6039L46.5653 61.6015L44.6516 56.6806C44.5605 56.4073 44.6516 56.1339 44.8339 56.0427C45.654 55.4049 46.383 54.6758 47.0209 53.8557C47.2032 53.6735 47.4766 53.5823 47.6588 53.6734L52.5796 55.5871L53.582 53.8557L49.3902 50.5752C49.208 50.3929 49.1168 50.1195 49.208 49.9373C49.5725 48.9349 49.8459 47.9325 50.0281 46.9301C50.0281 46.6567 50.3015 46.4745 50.4837 46.4745L55.7691 45.6543V44.6519C55.7691 44.2874 56.0425 44.014 56.407 44.014C56.7715 44.014 57.0448 44.2874 57.0448 44.6519V46.11C57.0448 46.3833 56.8626 46.6567 56.4981 46.6567L51.1216 47.4769C50.9394 48.297 50.7571 49.1171 50.4837 49.9373L54.6756 53.3089C54.9489 53.4912 54.9489 53.8557 54.8578 54.0379L53.3998 56.6806C53.2175 56.954 52.9441 57.0451 52.6708 56.954L47.6588 54.9492C47.1121 55.5871 46.4742 56.225 45.9274 56.7717L47.9322 61.7837C48.0233 62.0571 47.9322 62.3305 47.6588 62.5127L45.1073 63.9708C44.8339 64.153 44.5605 64.0619 44.3783 63.7885L41.0066 59.5967C40.1865 59.87 39.3663 60.0523 38.5462 60.2346L37.726 65.611C37.9083 65.8844 37.6349 66.0667 37.3615 66.0667ZM35.9035 52.8533C31.3472 52.8533 27.611 49.1171 27.611 44.5608C27.611 44.1963 27.8844 43.9229 28.2489 43.9229C28.6134 43.9229 28.8868 44.1963 28.8868 44.5608C28.8868 48.4792 32.0762 51.6687 35.9946 51.6687C39.9131 51.6687 43.1025 48.4792 43.1025 44.5608C43.1025 44.1963 43.3759 43.9229 43.7404 43.9229C44.1049 43.9229 44.3783 44.1963 44.3783 44.5608C44.1049 49.2082 40.4598 52.8533 35.9035 52.8533Z" fill="black"/>
<path d="M63.2418 45.1987H8.47477C8.11027 45.1987 7.92801 44.9253 7.92801 44.5608C7.92801 44.1963 8.20139 43.9229 8.47477 43.9229H63.2418C63.6063 43.9229 63.8797 44.1963 63.8797 44.5608C63.7885 44.9253 63.6063 45.1987 63.2418 45.1987Z" fill="black"/>
<path d="M46.2008 20.1389H17.2226C16.8581 20.1389 16.6758 19.8655 16.6758 19.501C16.6758 19.1365 16.9492 18.8631 17.2226 18.8631H46.2008C46.5653 18.8631 46.8387 19.1365 46.8387 19.501C46.8387 19.8655 46.4742 20.1389 46.2008 20.1389Z" fill="black"/>
<path d="M54.4938 20.1389H49.7552C49.3907 20.1389 49.1174 19.8655 49.1174 19.501C49.1174 19.1365 49.3907 18.8631 49.7552 18.8631H54.4938C54.8583 18.8631 55.1317 19.1365 55.1317 19.501C55.1317 19.8655 54.7672 20.1389 54.4938 20.1389Z" fill="black"/>
<path d="M40.0042 24.7865H17.2226C16.8581 24.7865 16.6758 24.5131 16.6758 24.1486C16.6758 23.7841 16.9492 23.5107 17.2226 23.5107H40.0042C40.3687 23.5107 40.6421 23.7841 40.6421 24.1486C40.6421 24.5131 40.3687 24.7865 40.0042 24.7865Z" fill="black"/>
<path d="M54.4938 24.7865H49.7552C49.3907 24.7865 49.1174 24.5131 49.1174 24.1486C49.1174 23.7841 49.3907 23.5107 49.7552 23.5107H54.4938C54.8583 23.5107 55.1317 23.7841 55.1317 24.1486C55.0406 24.5131 54.7672 24.7865 54.4938 24.7865Z" fill="black"/>
<path d="M46.2921 24.7865H43.0115C42.647 24.7865 42.3737 24.5131 42.3737 24.1486C42.3737 23.7841 42.647 23.5107 43.0115 23.5107H46.2921C46.6566 23.5107 46.93 23.7841 46.93 24.1486C46.93 24.5131 46.6566 24.7865 46.2921 24.7865Z" fill="black"/>
<path d="M54.4931 28.9781H31.7115C31.347 28.9781 31.0736 28.7048 31.0736 28.3403C31.0736 27.9758 31.347 27.7024 31.7115 27.7024H54.4931C54.8576 27.7024 55.131 27.9758 55.131 28.3403C55.0399 28.7048 54.7665 28.9781 54.4931 28.9781Z" fill="black"/>
<path d="M21.9612 28.9781H17.2226C16.8581 28.9781 16.6758 28.7048 16.6758 28.3403C16.6758 27.9758 16.9492 27.7024 17.2226 27.7024H21.9612C22.3257 27.7024 22.5079 27.9758 22.5079 28.3403C22.5079 28.7048 22.2345 28.9781 21.9612 28.9781Z" fill="black"/>
<path d="M28.7049 28.9781H25.4243C25.0598 28.9781 24.7864 28.7048 24.7864 28.3403C24.7864 27.9758 25.0598 27.7024 25.4243 27.7024H28.7049C29.0694 27.7024 29.3427 27.9758 29.3427 28.3403C29.2516 28.7048 29.0694 28.9781 28.7049 28.9781Z" fill="black"/>
<path d="M54.4933 33.5345H25.9707C25.6062 33.5345 25.3328 33.2611 25.3328 32.8966C25.3328 32.5321 25.6062 32.2587 25.9707 32.2587H54.4933C54.8578 32.2587 55.1312 32.5321 55.1312 32.8966C55.1312 33.2611 54.7667 33.5345 54.4933 33.5345Z" fill="black"/>
<path d="M21.9612 33.5345H17.2226C16.8581 33.5345 16.6758 33.2611 16.6758 32.8966C16.6758 32.5321 16.9492 32.2587 17.2226 32.2587H21.9612C22.3257 32.2587 22.5079 32.5321 22.5079 32.8966C22.5079 33.2611 22.2345 33.5345 21.9612 33.5345Z" fill="black"/>
<path d="M40.0042 38.0908H17.2226C16.8581 38.0908 16.6758 37.8174 16.6758 37.4529C16.6758 37.0884 16.9492 36.815 17.2226 36.815H40.0042C40.3687 36.815 40.6421 37.0884 40.6421 37.4529C40.6421 37.8174 40.3687 38.0908 40.0042 38.0908Z" fill="black"/>
<path d="M54.4938 38.0908H49.7552C49.3907 38.0908 49.1174 37.8174 49.1174 37.4529C49.1174 37.0884 49.3907 36.815 49.7552 36.815H54.4938C54.8583 36.815 55.1317 37.0884 55.1317 37.4529C55.0406 37.8174 54.7672 38.0908 54.4938 38.0908Z" fill="black"/>
<path d="M46.2921 38.0908H43.0115C42.647 38.0908 42.3737 37.8174 42.3737 37.4529C42.3737 37.0884 42.647 36.815 43.0115 36.815H46.2921C46.6566 36.815 46.93 37.0884 46.93 37.4529C46.93 37.8174 46.6566 38.0908 46.2921 38.0908Z" fill="black"/>
</svg>
